<svg width="161" height="38" viewBox="0 0 161 38" fill="none" xmlns="http://www.w3.org/2000/svg">
<path d="M31.0703 1.5625L27.0859 11.4062C25.7448 10.6771 24.4036 10.1302 23.0625 9.76562C21.7344 9.38802 20.5169 9.11458 19.4102 8.94531C18.1211 8.75 16.8906 8.64583 15.7188 8.63281C14.7161 8.65885 13.7135 8.72396 12.7109 8.82812C11.7214 8.93229 10.7773 9.10807 9.87891 9.35547C8.98047 9.58984 8.14062 9.89583 7.35938 10.2734C6.59115 10.651 5.92057 11.1263 5.34766 11.6992C4.78776 12.2591 4.34505 12.9297 4.01953 13.7109C3.70703 14.4922 3.55078 15.3906 3.55078 16.4062C3.55078 17.6823 3.78516 18.8411 4.25391 19.8828C4.72266 20.9245 5.42578 21.8164 6.36328 22.5586C7.30078 23.3008 8.47266 23.8737 9.87891 24.2773C11.2852 24.681 12.9258 24.8828 14.8008 24.8828C15.9727 24.8438 17.151 24.681 18.3359 24.3945C18.8438 24.2773 19.3711 24.1276 19.918 23.9453C20.4779 23.75 21.0378 23.5156 21.5977 23.2422C22.1706 22.9688 22.737 22.6497 23.2969 22.2852C23.8698 21.9206 24.4102 21.4909 24.918 20.9961L25.1914 17.832L12.4766 18.5547V14.1992H32.0469L31.793 17.4414L28.9609 17.5977L29.1953 26.9141C28.7656 27.3698 28.2318 27.7734 27.5938 28.125C26.9688 28.4635 26.2786 28.763 25.5234 29.0234C24.7812 29.2708 24 29.4792 23.1797 29.6484C22.3594 29.8177 21.5586 29.9609 20.7773 30.0781C18.9284 30.3385 16.9753 30.4883 14.918 30.5273C13.1081 30.5273 11.487 30.3516 10.0547 30C8.6224 29.6615 7.35938 29.1797 6.26562 28.5547C5.17188 27.9167 4.23438 27.168 3.45312 26.3086C2.67188 25.4362 2.03385 24.4792 1.53906 23.4375C1.04427 22.3828 0.679688 21.263 0.445312 20.0781C0.223958 18.8932 0.113281 17.6693 0.113281 16.4062C0.113281 14.6745 0.334635 13.1055 0.777344 11.6992C1.23307 10.2799 1.85156 9.01693 2.63281 7.91016C3.41406 6.79036 4.33203 5.82682 5.38672 5.01953C6.44141 4.19922 7.56771 3.52865 8.76562 3.00781C9.97656 2.48698 11.2266 2.10938 12.5156 1.875C13.8177 1.6276 15.1003 1.52344 16.3633 1.5625C17.8086 1.6276 19.2018 1.76432 20.543 1.97266C21.1159 2.0638 21.7018 2.17448 22.3008 2.30469C22.9128 2.42188 23.5052 2.5651 24.0781 2.73438C24.651 2.90365 25.1914 3.09896 25.6992 3.32031C26.207 3.54167 26.6562 3.79557 27.0469 4.08203L27.8867 0.3125L31.0703 1.5625ZM50.9375 14L49.3906 19.3125C48.8802 19.0417 48.3125 18.776 47.6875 18.5156C47.0625 18.2552 46.4167 18.026 45.75 17.8281C45.0938 17.6302 44.4323 17.474 43.7656 17.3594C43.1094 17.2344 42.4896 17.1719 41.9062 17.1719C41.0938 17.1719 40.4323 17.2969 39.9219 17.5469C39.4115 17.7865 39.1562 18.1406 39.1562 18.6094C39.1562 18.9115 39.2708 19.1719 39.5 19.3906C39.7292 19.599 40.0729 19.7969 40.5312 19.9844C41 20.1719 41.5833 20.3542 42.2812 20.5312C42.9896 20.7083 43.8125 20.9115 44.75 21.1406C45.5938 21.3385 46.3854 21.5625 47.125 21.8125C47.8646 22.0521 48.5052 22.3594 49.0469 22.7344C49.5885 23.1094 50.0156 23.5677 50.3281 24.1094C50.6406 24.651 50.7969 25.3125 50.7969 26.0938C50.7969 26.9271 50.6198 27.6302 50.2656 28.2031C49.9219 28.776 49.4375 29.2448 48.8125 29.6094C48.1875 29.9635 47.4479 30.2188 46.5938 30.375C45.75 30.5312 44.8281 30.6094 43.8281 30.6094C42.6094 30.6094 41.5625 30.5156 40.6875 30.3281C39.8229 30.1406 39.1042 29.9375 38.5312 29.7188C37.9688 29.4896 37.5365 29.2812 37.2344 29.0938C36.9427 28.9062 36.7604 28.8125 36.6875 28.8125L36.375 31.3438L33.0781 30.2188L34.8594 25.1406C35.1823 25.349 35.5729 25.5677 36.0312 25.7969C36.4896 26.026 36.9792 26.2552 37.5 26.4844C38.0208 26.7135 38.5625 26.9375 39.125 27.1562C39.6979 27.3646 40.2604 27.5521 40.8125 27.7188C41.3646 27.875 41.8906 28 42.3906 28.0938C42.8906 28.1875 43.3385 28.2344 43.7344 28.2344C43.9219 28.2344 44.1302 28.2188 44.3594 28.1875C44.5885 28.1562 44.8021 28.099 45 28.0156C45.2083 27.9219 45.3802 27.7969 45.5156 27.6406C45.651 27.474 45.7188 27.2552 45.7188 26.9844C45.7188 26.651 45.599 26.3646 45.3594 26.125C45.1198 25.875 44.8281 25.6615 44.4844 25.4844C44.1406 25.3073 43.7708 25.1615 43.375 25.0469C42.9896 24.9219 42.6406 24.8125 42.3281 24.7188C41.8281 24.5833 41.276 24.4271 40.6719 24.25C40.0677 24.0625 39.4531 23.849 38.8281 23.6094C38.2031 23.3594 37.599 23.0781 37.0156 22.7656C36.4323 22.4531 35.9115 22.0938 35.4531 21.6875C34.9948 21.2812 34.625 20.8281 34.3438 20.3281C34.0729 19.8281 33.9375 19.2656 33.9375 18.6406C33.9375 18.0052 34.0885 17.4062 34.3906 16.8438C34.6927 16.2708 35.1302 15.7708 35.7031 15.3438C36.2865 14.9167 37 14.5781 37.8438 14.3281C38.6979 14.0677 39.6667 13.9375 40.75 13.9375C41.7708 13.9375 42.7031 14.0365 43.5469 14.2344C44.401 14.4323 45.1406 14.651 45.7656 14.8906C46.4948 15.1615 47.151 15.474 47.7344 15.8281L47.6719 13.3594L50.9375 14ZM62.8594 37.0469L51.5625 36.8438V34.4844L54.4688 34.3125L55.5938 16.8438L51.5625 16.5312V14.3906L60.1406 13.4844L60.1094 15.7344C60.3906 15.4844 60.7135 15.2448 61.0781 15.0156C61.4427 14.7865 61.8438 14.5833 62.2812 14.4062C62.7188 14.2188 63.1979 14.0729 63.7188 13.9688C64.2396 13.8646 64.8021 13.8125 65.4062 13.8125C65.8438 13.8125 66.3333 13.8646 66.875 13.9688C67.4167 14.0625 67.9583 14.2292 68.5 14.4688C69.0521 14.6979 69.5833 15.0104 70.0938 15.4062C70.6146 15.8021 71.0729 16.2969 71.4688 16.8906C71.875 17.4844 72.1979 18.1875 72.4375 19C72.6875 19.8125 72.8125 20.7604 72.8125 21.8438C72.8125 22.9479 72.6875 23.9219 72.4375 24.7656C72.1979 25.599 71.8698 26.3229 71.4531 26.9375C71.0365 27.5417 70.5521 28.0469 70 28.4531C69.4479 28.8594 68.8542 29.1875 68.2188 29.4375C67.5938 29.6771 66.9479 29.849 66.2812 29.9531C65.6146 30.0469 64.9635 30.0938 64.3281 30.0938C63.8177 30.0938 63.3021 30.0469 62.7812 29.9531C62.3333 29.8802 61.849 29.7656 61.3281 29.6094C60.8177 29.4427 60.3438 29.2083 59.9062 28.9062L59.8438 34.0312L63.2031 33.8438L62.8594 37.0469ZM63.5625 27.7969C64.1979 27.7969 64.7552 27.6146 65.2344 27.25C65.7135 26.8854 66.1094 26.4167 66.4219 25.8438C66.7344 25.2708 66.9688 24.6458 67.125 23.9688C67.2812 23.2812 67.3594 22.6146 67.3594 21.9688C67.3594 21.3229 67.2865 20.651 67.1406 19.9531C67.0052 19.2448 66.7812 18.599 66.4688 18.0156C66.1667 17.4323 65.7708 16.9531 65.2812 16.5781C64.7917 16.2031 64.1979 16.0156 63.5 16.0156C63.125 16.0365 62.7396 16.1354 62.3438 16.3125C62.0104 16.4583 61.6354 16.6979 61.2188 17.0312C60.8125 17.3542 60.4167 17.8177 60.0312 18.4219L59.9375 26.1875C60.375 26.5938 60.8073 26.9062 61.2344 27.125C61.6719 27.3333 62.0625 27.4896 62.4062 27.5938C62.8125 27.7083 63.1979 27.776 63.5625 27.7969ZM94.0312 28.2031L93.2344 31.0938L85.4688 30.5156C85.4896 30.3594 85.5156 30.1875 85.5469 30C85.5781 29.8125 85.6094 29.6354 85.6406 29.4688C85.6823 29.2812 85.7188 29.0938 85.75 28.9062C84.8438 29.4062 83.9271 29.7604 83 29.9688C82.0729 30.1771 81.1667 30.2812 80.2812 30.2812C79.6354 30.2812 78.9635 30.224 78.2656 30.1094C77.5677 29.9948 76.9271 29.7969 76.3438 29.5156C75.7708 29.224 75.2969 28.8438 74.9219 28.375C74.5469 27.8958 74.3594 27.2969 74.3594 26.5781C74.3594 25.8177 74.5312 25.1615 74.875 24.6094C75.2188 24.0573 75.6719 23.5885 76.2344 23.2031C76.7969 22.8073 77.4323 22.4896 78.1406 22.25C78.8594 22.0104 79.5833 21.8229 80.3125 21.6875C81.0521 21.5417 81.7708 21.4479 82.4688 21.4062C83.1667 21.3542 83.7812 21.3281 84.3125 21.3281C84.875 21.3281 85.3802 21.3438 85.8281 21.375C86.276 21.3958 86.6771 21.4323 87.0312 21.4844C87.1562 20.724 87.2188 20 87.2188 19.3125C87.2188 18.8125 87.151 18.3594 87.0156 17.9531C86.8906 17.5469 86.6667 17.2083 86.3438 16.9375C86.0312 16.6667 85.6094 16.4635 85.0781 16.3281C84.5573 16.1927 83.9062 16.1406 83.125 16.1719C82.6042 16.224 82.125 16.3698 81.6875 16.6094C81.5 16.7135 81.3073 16.8438 81.1094 17C80.9219 17.1562 80.7396 17.3438 80.5625 17.5625C80.3958 17.7812 80.2448 18.0417 80.1094 18.3438C79.974 18.6354 79.8698 18.9688 79.7969 19.3438L74.75 19.5938C74.8229 18.875 75.0052 18.2396 75.2969 17.6875C75.5885 17.125 75.9427 16.6406 76.3594 16.2344C76.7865 15.8177 77.2552 15.4635 77.7656 15.1719C78.276 14.8802 78.7917 14.6354 79.3125 14.4375C80.5417 13.9896 81.9115 13.7135 83.4219 13.6094C84.776 13.5885 85.9219 13.7188 86.8594 14C87.8073 14.2708 88.5885 14.6406 89.2031 15.1094C89.8177 15.5677 90.2969 16.0885 90.6406 16.6719C90.9844 17.2552 91.2344 17.8385 91.3906 18.4219C91.5469 18.9948 91.6354 19.5417 91.6562 20.0625C91.6771 20.5729 91.6823 20.9948 91.6719 21.3281C91.6406 21.7344 91.5677 22.2448 91.4531 22.8594C91.3594 23.3906 91.2188 24.0573 91.0312 24.8594C90.8542 25.6615 90.6094 26.6198 90.2969 27.7344L94.0312 28.2031ZM86.6719 23.5938C86.4323 23.5729 86.1719 23.5573 85.8906 23.5469C85.6094 23.5365 85.3177 23.5312 85.0156 23.5312C84.7552 23.5312 84.4323 23.5417 84.0469 23.5625C83.6719 23.5833 83.276 23.625 82.8594 23.6875C82.4427 23.7396 82.026 23.8177 81.6094 23.9219C81.1927 24.026 80.8177 24.1615 80.4844 24.3281C80.1615 24.4948 79.8958 24.6979 79.6875 24.9375C79.4792 25.1771 79.375 25.4583 79.375 25.7812C79.375 26.0312 79.4479 26.2708 79.5938 26.5C79.75 26.7188 79.9583 26.9062 80.2188 27.0625C80.4792 27.2188 80.7812 27.3333 81.125 27.4062C81.4792 27.4688 81.849 27.4688 82.2344 27.4062C83.0156 27.2604 83.75 27.0833 84.4375 26.875C85.1354 26.6562 85.7344 26.4479 86.2344 26.25C86.3177 25.8125 86.3958 25.3698 86.4688 24.9219C86.5417 24.474 86.6094 24.0312 86.6719 23.5938ZM112.109 27.0625C111.63 27.6771 111.12 28.1979 110.578 28.625C110.036 29.0417 109.484 29.3906 108.922 29.6719C108.37 29.9427 107.823 30.151 107.281 30.2969C106.74 30.4531 106.234 30.5625 105.766 30.625C105.297 30.6979 104.875 30.7396 104.5 30.75C104.125 30.7604 103.828 30.7656 103.609 30.7656C102.786 30.7656 101.984 30.6719 101.203 30.4844C100.422 30.3073 99.6823 30.0469 98.9844 29.7031C98.2969 29.3594 97.6719 28.9323 97.1094 28.4219C96.5469 27.9115 96.0677 27.3333 95.6719 26.6875C95.2865 26.0417 95 25.3281 94.8125 24.5469C94.625 23.7552 94.5677 22.9062 94.6406 22C94.7552 20.5312 95.0885 19.2708 95.6406 18.2188C96.2031 17.1562 96.901 16.2865 97.7344 15.6094C98.5781 14.9219 99.5156 14.4167 100.547 14.0938C101.589 13.7708 102.641 13.6094 103.703 13.6094C104.182 13.6302 104.688 13.6979 105.219 13.8125C105.667 13.9167 106.172 14.0729 106.734 14.2812C107.297 14.4896 107.865 14.7812 108.438 15.1562L108.984 12.5L112.781 13.2344L110.156 20.2344L107.5 19.9219L107.953 17.6406C107.568 17.3385 107.198 17.1094 106.844 16.9531C106.5 16.7865 106.193 16.6615 105.922 16.5781C105.609 16.4844 105.318 16.4271 105.047 16.4062C104.172 16.4062 103.401 16.5469 102.734 16.8281C102.078 17.1094 101.521 17.5 101.062 18C100.615 18.4896 100.276 19.0781 100.047 19.7656C99.8177 20.4427 99.7031 21.1875 99.7031 22C99.7031 22.8854 99.8021 23.7031 100 24.4531C100.208 25.2031 100.531 25.8542 100.969 26.4062C101.406 26.9479 101.958 27.375 102.625 27.6875C103.302 27.9896 104.109 28.1406 105.047 28.1406C105.641 28.099 106.214 27.9323 106.766 27.6406C106.995 27.5156 107.234 27.3594 107.484 27.1719C107.734 26.974 107.979 26.7396 108.219 26.4688C108.458 26.1875 108.688 25.8646 108.906 25.5C109.125 25.125 109.318 24.6927 109.484 24.2031L112.109 27.0625ZM131.859 24.6562C131.464 25.6875 130.911 26.5833 130.203 27.3438C129.505 28.0938 128.714 28.7188 127.828 29.2188C126.943 29.7083 126.005 30.0729 125.016 30.3125C124.026 30.5521 123.052 30.6719 122.094 30.6719C120.76 30.6719 119.573 30.4635 118.531 30.0469C117.49 29.6302 116.604 29.0677 115.875 28.3594C115.146 27.651 114.573 26.8229 114.156 25.875C113.75 24.9167 113.516 23.901 113.453 22.8281C113.453 21.1927 113.724 19.7969 114.266 18.6406C114.818 17.474 115.562 16.526 116.5 15.7969C117.448 15.0677 118.552 14.5365 119.812 14.2031C121.073 13.8594 122.411 13.6875 123.828 13.6875C124.349 13.6875 124.885 13.724 125.438 13.7969C126 13.8698 126.547 14 127.078 14.1875C127.609 14.375 128.115 14.6354 128.594 14.9688C129.083 15.2917 129.521 15.7135 129.906 16.2344C130.302 16.7448 130.635 17.3594 130.906 18.0781C131.177 18.7969 131.365 19.6458 131.469 20.625L118.641 22.9219C118.724 23.6406 118.87 24.3438 119.078 25.0312C119.297 25.7188 119.589 26.3281 119.953 26.8594C120.318 27.3802 120.766 27.7969 121.297 28.1094C121.839 28.4115 122.479 28.5521 123.219 28.5312C124.021 28.4375 124.729 28.1979 125.344 27.8125C125.604 27.6458 125.854 27.4427 126.094 27.2031C126.333 26.9531 126.542 26.6562 126.719 26.3125C126.896 25.9688 127.026 25.5677 127.109 25.1094C127.193 24.651 127.208 24.125 127.156 23.5312L131.859 24.6562ZM125.938 19.625C125.896 19.1354 125.807 18.7083 125.672 18.3438C125.536 17.9792 125.365 17.6667 125.156 17.4062C124.958 17.1458 124.734 16.9323 124.484 16.7656C124.245 16.5885 124 16.4479 123.75 16.3438C123.167 16.1042 122.51 15.9948 121.781 16.0156C121.094 16.099 120.536 16.2969 120.109 16.6094C119.682 16.9115 119.349 17.2917 119.109 17.75C118.88 18.1979 118.724 18.6979 118.641 19.25C118.557 19.8021 118.516 20.3646 118.516 20.9375L125.938 19.625ZM160.082 7.63672L141.801 23.5547L156.371 23.2812V18.7695H160.492L159.691 29.8438H134.613L133.695 23.6719L155.258 7.75391L137.816 8.08594V12.5586H133.695L134.496 1.48438H159.125L160.082 7.63672Z" fill="black"/>
</svg>
